<?xml version="1.0" encoding="UTF-8" standalone="no"?>
<!-- Created with Inkscape (http://www.inkscape.org/) -->

<svg
   width="1920"
   height="3240"
   viewBox="0 0 1920 3240"
   version="1.1"
   id="svg5"
   inkscape:version="1.3.2 (091e20ef0f, 2023-11-25, custom)"
   sodipodi:docname="blurs_light.svg"
   inkscape:export-filename="blurs.png"
   inkscape:export-xdpi="96"
   inkscape:export-ydpi="96"
   xmlns:inkscape="http://www.inkscape.org/namespaces/inkscape"
   xmlns:sodipodi="http://sodipodi.sourceforge.net/DTD/sodipodi-0.dtd"
   xmlns="http://www.w3.org/2000/svg"
   xmlns:svg="http://www.w3.org/2000/svg">
  <sodipodi:namedview
     id="namedview7"
     pagecolor="#505050"
     bordercolor="#eeeeee"
     borderopacity="1"
     inkscape:showpageshadow="0"
     inkscape:pageopacity="0"
     inkscape:pagecheckerboard="0"
     inkscape:deskcolor="#505050"
     inkscape:document-units="px"
     showgrid="false"
     inkscape:zoom="0.16547594"
     inkscape:cx="1039.426"
     inkscape:cy="1350.6495"
     inkscape:window-width="1904"
     inkscape:window-height="1027"
     inkscape:window-x="0"
     inkscape:window-y="0"
     inkscape:window-maximized="0"
     inkscape:current-layer="layer1"
     showguides="false" />
  <defs
     id="defs2">
    <filter
       style="color-interpolation-filters:sRGB;"
       inkscape:label="Blur"
       id="filter13"
       x="-1.0275312"
       y="-1.1893998"
       width="3.0550626"
       height="3.3788141">
      <feGaussianBlur
         stdDeviation="50 50"
         result="fbSourceGraphic"
         id="feGaussianBlur13" />
      <feColorMatrix
         result="fbSourceGraphicAlpha"
         in="fbSourceGraphic"
         values="0 0 0 -1 0 0 0 0 -1 0 0 0 0 -1 0 0 0 0 1 0"
         id="feColorMatrix14" />
      <feGaussianBlur
         id="feGaussianBlur14"
         stdDeviation="100 100"
         result="fbSourceGraphic"
         in="fbSourceGraphic" />
      <feColorMatrix
         result="fbSourceGraphicAlpha"
         in="fbSourceGraphic"
         values="0 0 0 -1 0 0 0 0 -1 0 0 0 0 -1 0 0 0 0 1 0"
         id="feColorMatrix15" />
      <feGaussianBlur
         id="feGaussianBlur15"
         stdDeviation="100 100"
         result="fbSourceGraphic"
         in="fbSourceGraphic" />
      <feColorMatrix
         result="fbSourceGraphicAlpha"
         in="fbSourceGraphic"
         values="0 0 0 -1 0 0 0 0 -1 0 0 0 0 -1 0 0 0 0 1 0"
         id="feColorMatrix16" />
      <feGaussianBlur
         id="feGaussianBlur16"
         stdDeviation="100 100"
         result="blur"
         in="fbSourceGraphic" />
    </filter>
  </defs>
  <g
     inkscape:label="Layer 1"
     inkscape:groupmode="layer"
     id="layer1">
    <g
       id="g10">
      <path
         style="fill:none;fill-opacity:1;stroke:#7474ff;stroke-width:50;stroke-linecap:round;stroke-linejoin:round;stroke-dasharray:none;stroke-opacity:1;filter:url(#filter13)"
         d="m 501.33596,-90.198258 c 0,0 943.69824,-2.79939 1209.92444,279.674738 259.8866,275.74752 -388.8585,47.87286 -388.8585,520.47542 0,472.6025 998.9445,295.9147 998.9445,295.9147"
         id="path1"
         sodipodi:nodetypes="cssc" />
      <path
         style="fill:none;fill-opacity:1;stroke:#74aaff;stroke-width:50;stroke-linecap:round;stroke-linejoin:round;stroke-dasharray:none;stroke-opacity:1;filter:url(#filter13)"
         d="m -390.01465,442.24783 c 0,0 972.93931,-304.56656 1150.61101,-190.3482 C 938.26805,366.11799 447.818,576.83794 532.15963,856.81905 637.92699,1207.9251 -208.11745,1402.5224 -208.11745,1402.5224"
         id="path2"
         sodipodi:nodetypes="cssc" />
      <path
         style="fill:none;fill-opacity:1;stroke:#aa74ff;stroke-width:50;stroke-linecap:round;stroke-linejoin:round;stroke-dasharray:none;stroke-opacity:1;filter:url(#filter13)"
         d="m -187.47962,1770.4194 c 0,0 774.14011,-33.8395 956.0373,-401.8712 181.89715,-368.0317 418.78492,-423.02223 714.90042,-169.2088 296.1156,253.8133 528.7778,80.3671 528.7778,80.3671"
         id="path3" />
      <path
         style="fill:none;fill-opacity:1;stroke:#ff74aa;stroke-width:50;stroke-linecap:round;stroke-linejoin:round;stroke-dasharray:none;stroke-opacity:1;filter:url(#filter13)"
         d="m -215.14006,2200.9259 c 0,0 1226.77626,-473.7991 1116.78338,101.5182 -109.99286,575.3173 -401.87111,-177.6717 -592.23111,198.8228 -190.36,376.4945 342.64328,994.1023 342.64328,994.1023"
         id="path4"
         sodipodi:nodetypes="cssc" />
      <path
         style="fill:none;fill-opacity:1;stroke:#f7597b;stroke-width:50;stroke-linecap:round;stroke-linejoin:round;stroke-dasharray:none;stroke-opacity:1;filter:url(#filter13)"
         d="m 2127.9122,1942.094 c 0,0 -850.27,-575.329 -659.91,-55.0023 190.36,520.3268 -177.6599,566.8663 -181.8972,1027.9535 -4.2373,461.0871 824.8934,587.9937 824.8934,587.9937"
         id="path5"
         sodipodi:nodetypes="cssc" />
    </g>
    <g
       id="g11">
      <path
         style="fill:none;fill-opacity:1;stroke:#7474ff;stroke-width:50;stroke-linecap:round;stroke-linejoin:round;stroke-dasharray:none;stroke-opacity:0.60000002;filter:url(#filter13)"
         d="m 501.33596,-90.198258 c 0,0 943.69824,-2.79939 1209.92444,279.674738 259.8866,275.74752 -388.8585,47.87286 -388.8585,520.47542 0,472.6025 998.9445,295.9147 998.9445,295.9147"
         id="path6"
         sodipodi:nodetypes="cssc" />
      <path
         style="fill:none;fill-opacity:1;stroke:#74aaff;stroke-width:50;stroke-linecap:round;stroke-linejoin:round;stroke-dasharray:none;stroke-opacity:0.60000002;filter:url(#filter13)"
         d="m -390.01465,442.24783 c 0,0 972.93931,-304.56656 1150.61101,-190.3482 C 938.26805,366.11799 447.818,576.83794 532.15963,856.81905 637.92699,1207.9251 -208.11745,1402.5224 -208.11745,1402.5224"
         id="path7"
         sodipodi:nodetypes="cssc" />
      <path
         style="fill:none;fill-opacity:1;stroke:#aa74ff;stroke-width:50;stroke-linecap:round;stroke-linejoin:round;stroke-dasharray:none;stroke-opacity:0.60000002;filter:url(#filter13)"
         d="m -187.47962,1770.4194 c 0,0 774.14011,-33.8395 956.0373,-401.8712 181.89715,-368.0317 418.78492,-423.02223 714.90042,-169.2088 296.1156,253.8133 528.7778,80.3671 528.7778,80.3671"
         id="path8" />
      <path
         style="fill:none;fill-opacity:1;stroke:#ff74aa;stroke-width:50;stroke-linecap:round;stroke-linejoin:round;stroke-dasharray:none;stroke-opacity:0.60000002;filter:url(#filter13)"
         d="m -215.14006,2200.9259 c 0,0 1226.77626,-473.7991 1116.78338,101.5182 -109.99286,575.3173 -401.87111,-177.6717 -592.23111,198.8228 -190.36,376.4945 342.64328,994.1023 342.64328,994.1023"
         id="path9"
         sodipodi:nodetypes="cssc" />
      <path
         style="fill:none;fill-opacity:1;stroke:#f7597b;stroke-width:50;stroke-linecap:round;stroke-linejoin:round;stroke-dasharray:none;stroke-opacity:0.60000002;filter:url(#filter13)"
         d="m 2127.9122,1942.094 c 0,0 -850.27,-575.329 -659.91,-55.0023 190.36,520.3268 -177.6599,566.8663 -181.8972,1027.9535 -4.2373,461.0871 824.8934,587.9937 824.8934,587.9937"
         id="path10"
         sodipodi:nodetypes="cssc" />
    </g>
  </g>
</svg>
