<?xml version="1.0" encoding="UTF-8" standalone="no"?>
<!-- Created with Inkscape (http://www.inkscape.org/) -->

<svg
   width="512"
   height="512"
   viewBox="0 0 512 511.99998"
   version="1.1"
   id="svg5"
   inkscape:version="1.3.2 (091e20ef0f, 2023-11-25, custom)"
   sodipodi:docname="0c.svg"
   xmlns:inkscape="http://www.inkscape.org/namespaces/inkscape"
   xmlns:sodipodi="http://sodipodi.sourceforge.net/DTD/sodipodi-0.dtd"
   xmlns="http://www.w3.org/2000/svg"
   xmlns:svg="http://www.w3.org/2000/svg">
  <sodipodi:namedview
     id="namedview7"
     pagecolor="#505050"
     bordercolor="#eeeeee"
     borderopacity="1"
     inkscape:showpageshadow="0"
     inkscape:pageopacity="0"
     inkscape:pagecheckerboard="0"
     inkscape:deskcolor="#505050"
     inkscape:document-units="px"
     showgrid="false"
     inkscape:zoom="1.3238075"
     inkscape:cx="199.80246"
     inkscape:cy="191.1154"
     inkscape:window-width="1904"
     inkscape:window-height="1032"
     inkscape:window-x="0"
     inkscape:window-y="0"
     inkscape:window-maximized="0"
     inkscape:current-layer="layer1" />
  <defs
     id="defs2" />
  <g
     inkscape:label="Layer 1"
     inkscape:groupmode="layer"
     id="layer1">
    <path
       id="path14"
       style="color:#000000;fill:#ffffff;stroke-linecap:square;stroke-miterlimit:10;-inkscape-stroke:none"
       d="M 77.699219 128 C 43.794242 128 16 155.79424 16 189.69922 L 16 322.30078 C 16 356.20576 43.794242 384 77.699219 384 L 174.61719 384 C 174.62128 383.92243 174.62441 383.84493 174.61719 383.76758 C 174.58192 383.46073 174.49516 383.16177 174.47266 382.85352 L 174.41992 382.12695 L 174.41992 381.24805 L 174.46875 382.64648 C 174.39025 381.52787 174.39025 380.40573 174.46875 379.28711 L 174.61133 377.25391 L 181.6875 352 L 77.699219 352 C 60.968694 352 48 339.0313 48 322.30078 L 48 189.69922 C 48 172.9687 60.968694 160 77.699219 160 L 215.28125 160 L 216.73828 158.10156 L 229.85547 140.91211 L 239.68945 128 L 77.699219 128 z M 287.375 128 C 287.56455 129.01084 287.80187 130.21221 287.83984 130.61719 C 287.96153 131.91499 287.83984 130.89453 287.83984 130.89453 L 287.83789 131.01172 C 287.82343 132.24959 287.71095 133.48295 287.50195 134.70312 L 287.32812 135.72852 L 280.51758 160 L 386.30078 160 C 403.0313 160 416 172.9687 416 189.69922 L 416 322.30078 C 416 339.0313 403.0313 352 386.30078 352 L 247.0332 352 L 237.71289 364.22852 L 222.57031 384 L 386.30078 384 C 420.20576 384 448 356.20576 448 322.30078 L 448 189.69922 C 448 155.79424 420.20576 128 386.30078 128 L 287.375 128 z " />
    <path
       fill="none"
       stroke="currentColor"
       stroke-linecap="round"
       stroke-miterlimit="10"
       stroke-width="32"
       d="m 480,218.67 v 74.66"
       id="path2"
       style="stroke:#ffffff;stroke-opacity:1" />
    <path
       style="color:#000000;fill:#ffffff;-inkscape-stroke:none;paint-order:markers stroke fill;fill-opacity:1"
       d="m 276.07,280.97711 27.07,-35.49 a 5.2,5.2 0 0 0 0.77,-1.91 5,5 0 0 0 0.08,-0.66 5,5 0 0 0 -0.08,-1.29 5.1,5.1 0 0 0 -0.68,-1.75 4.8,4.8 0 0 0 -0.78,-0.95 3.5,3.5 0 0 0 -0.48,-0.38 4,4 0 0 0 -1.11,-0.55 4.3,4.3 0 0 0 -1.31,-0.2 h -61.62 l 12.12,-43.21 3.23,-11.5 6.21,-22.16 0.51,-1.84 7.79,-27.76 a 3.5,3.5 0 0 0 0.05,-0.55 v -0.16 c 0,-0.05 0,-0.26 -0.05,-0.38 -0.05,-0.12 0,-0.09 0,-0.14 a 2.2,2.2 0 0 0 -0.17,-0.45 4,4 0 0 0 -0.26,-0.39 l -0.09,-0.1 a 3,3 0 0 0 -0.25,-0.23 l -0.1,-0.08 a 3,3 0 0 0 -0.39,-0.24 2,2 0 0 0 -0.41,-0.14 h -0.59 a 2.3,2.3 0 0 0 -0.45,0 2,2 0 0 0 -0.42,0.15 l -0.13,0.07 -0.3,0.21 -0.11,0.1 a 2.4,2.4 0 0 0 -0.36,0.41 l -18,23.63 -13.14,17.22 -9.85,12.83 -63.71,83.55 a 6,6 0 0 0 -0.44,0.8 4.8,4.8 0 0 0 -0.35,1.09 4.7,4.7 0 0 0 -0.08,1.29 4.86,4.86 0 0 0 2,3.71 5,5 0 0 0 0.54,0.31 4.3,4.3 0 0 0 1.89,0.43 h 61.62 l -29.82,106.42 a 4,4 0 0 0 0,0.56 v 0.15 a 2.3,2.3 0 0 0 0.06,0.38 0.6,0.6 0 0 0 0,0.14 2.2,2.2 0 0 0 0.17,0.45 4,4 0 0 0 0.26,0.38 l 0.09,0.1 0.25,0.24 a 0.4,0.4 0 0 1 0.1,0.08 2.2,2.2 0 0 0 0.39,0.23 3,3 0 0 0 0.41,0.14 h 0.13 a 2,2 0 0 0 0.33,0 h 0.13 a 2.3,2.3 0 0 0 0.45,-0.06 2,2 0 0 0 0.41,-0.16 l 0.13,-0.07 0.3,-0.21 0.11,-0.09 a 2.4,2.4 0 0 0 0.36,-0.41 l 23.32,-30.45 17.53,-23 z"
       id="path6" />
  </g>
</svg>
