<?xml version="1.0" encoding="UTF-8" standalone="no"?>
<!-- Created with Inkscape (http://www.inkscape.org/) -->

<svg
   width="512"
   height="512"
   viewBox="0 0 512 511.99998"
   version="1.1"
   id="svg5"
   inkscape:version="1.3.2 (091e20ef0f, 2023-11-25, custom)"
   sodipodi:docname="80f.svg"
   xmlns:inkscape="http://www.inkscape.org/namespaces/inkscape"
   xmlns:sodipodi="http://sodipodi.sourceforge.net/DTD/sodipodi-0.dtd"
   xmlns="http://www.w3.org/2000/svg"
   xmlns:svg="http://www.w3.org/2000/svg">
  <sodipodi:namedview
     id="namedview7"
     pagecolor="#505050"
     bordercolor="#eeeeee"
     borderopacity="1"
     inkscape:showpageshadow="0"
     inkscape:pageopacity="0"
     inkscape:pagecheckerboard="0"
     inkscape:deskcolor="#505050"
     inkscape:document-units="px"
     showgrid="false"
     inkscape:zoom="1.3238075"
     inkscape:cx="224.35286"
     inkscape:cy="199.42476"
     inkscape:window-width="1904"
     inkscape:window-height="1032"
     inkscape:window-x="0"
     inkscape:window-y="0"
     inkscape:window-maximized="0"
     inkscape:current-layer="layer1" />
  <defs
     id="defs2" />
  <g
     inkscape:label="Layer 1"
     inkscape:groupmode="layer"
     id="layer1">
    <g
       id="rect2" />
    <path
       id="path8"
       style="color:#000000;fill:#ffffff;stroke-linecap:square;stroke-miterlimit:10;-inkscape-stroke:none"
       d="M 77.699219 128 C 43.794242 128 16 155.79424 16 189.69922 L 16 322.30078 C 16 356.20576 43.794242 384 77.699219 384 L 161.32617 384 C 159.1506 382.25396 157.09321 380.33976 155.25195 378.1875 L 132.8457 352 L 77.699219 352 C 60.968694 352 48 339.0313 48 322.30078 L 48 189.69922 C 48 172.9687 60.968694 160 77.699219 160 L 282.79492 160 L 302.83203 134.94727 L 302.83594 134.94336 C 304.9151 132.34558 307.26814 130.03954 309.80664 128 L 77.699219 128 z M 366.03125 128 C 375.61711 135.93835 381.55265 147.70153 382.6543 160 L 386.30078 160 C 403.0313 160 416 172.9687 416 189.69922 L 416 322.30078 C 416 339.0313 403.0313 352 386.30078 352 L 244.88672 352 L 224.8457 377.05078 L 224.8418 377.05273 C 222.77204 379.63876 220.43846 381.95882 217.90234 384 L 386.30078 384 C 420.20576 384 448 356.20576 448 322.30078 L 448 189.69922 C 448 155.79424 420.20576 128 386.30078 128 L 366.03125 128 z M 337.2168 155.33594 C 335.17212 155.56133 333.28933 156.58293 331.95508 158.25 L 330.55469 160 L 345.94531 160 C 344.99592 157.67951 342.69591 155.89841 339.30078 155.38086 C 338.59716 155.27366 337.89836 155.26084 337.2168 155.33594 z M 89.689453 182.92969 C 78.886242 182.92969 69.689453 192.12647 69.689453 202.92969 L 69.689453 309.06055 C 69.689453 319.86376 78.886242 329.06055 89.689453 329.06055 L 113.21875 329.06055 L 91.666016 303.87109 L 91.664062 303.86914 C 75.424935 285.09594 77.604031 256.11951 96.46875 239.98633 C 115.33417 223.85253 144.29824 226.19717 160.32422 245.1543 L 188.42773 277.98828 L 264.45508 182.92969 L 89.689453 182.92969 z M 312.2168 182.92969 L 203.47852 318.88281 C 196.17083 328.01677 182.35586 328.24686 174.74805 319.36133 L 131.91406 269.32031 C 131.88986 269.29111 131.8658 269.26182 131.8418 269.23242 C 128.87768 265.72618 124.19828 265.34797 120.70898 268.33203 C 117.2197 271.31609 116.86914 275.99652 119.87305 279.46875 C 119.89525 279.49405 119.91735 279.51942 119.93945 279.54492 L 162.30469 329.06055 L 215.47266 329.06055 L 332.37695 182.92969 L 312.2168 182.92969 z M 378.43359 183.49609 C 377.07994 186.23357 375.40999 188.88141 373.40039 191.39453 L 367.76758 198.39648 L 263.23828 329.06055 L 374 329.06055 C 384.80321 329.06055 394 319.86376 394 309.06055 L 394 202.92969 C 394 193.64834 387.19667 185.5928 378.43359 183.49609 z M 181.93164 352 L 183.5918 353.93945 L 183.59375 353.94141 C 185.09715 355.69895 187.26334 356.69749 189.57617 356.69727 L 189.57812 356.69727 L 189.71289 356.69727 C 192.06709 356.6564 194.24862 355.58795 195.7207 353.75 L 195.7207 353.74805 L 195.72266 353.74805 L 197.12109 352 L 181.93164 352 z " />
    <path
       fill="none"
       stroke="currentColor"
       stroke-linecap="round"
       stroke-miterlimit="10"
       stroke-width="32"
       d="m 480,218.67 v 74.66"
       id="path2"
       style="stroke:#ffffff;stroke-opacity:1" />
    <g
       id="path5">
      <path
         style="color:#000000;fill:#ffffff;stroke-linecap:round;stroke-linejoin:round;-inkscape-stroke:none;paint-order:markers stroke fill"
         d="m 342.11115,136.94503 a 26.534704,26.534704 0 0 0 -24.71523,9.65104 L 188.91498,307.2353 146.0826,257.19295 a 26.523083,26.523083 0 1 0 -40.31359,34.47635 l 63.65287,74.39495 a 26.521756,26.521756 0 0 0 20.15679,9.28198 h 0.43059 a 26.521756,26.521756 0 0 0 20.27335,-9.94566 l 148.52118,-185.6523 h 0.0324 a 26.534704,26.534704 0 0 0 -16.72502,-42.80324 z"
         id="path7" />
    </g>
  </g>
</svg>
